<svg width="24" height="25" viewBox="0 0 24 25" fill="none" xmlns="http://www.w3.org/2000/svg">
<path d="M20 11.3738H22C22 6.24382 18.127 2.37482 12.99 2.37482V4.37482C17.052 4.37482 20 7.31782 20 11.3738Z" fill="white"/>
<path d="M13 8.37482C15.103 8.37482 16 9.27182 16 11.3748H18C18 8.14982 16.225 6.37482 13 6.37482V8.37482ZM16.422 13.8178C16.2299 13.6432 15.9774 13.55 15.7178 13.558C15.4583 13.5661 15.212 13.6746 15.031 13.8608L12.638 16.3218C12.062 16.2118 10.904 15.8508 9.71201 14.6618C8.52001 13.4688 8.15901 12.3078 8.05201 11.7358L10.511 9.34182C10.6974 9.16094 10.8061 8.91464 10.8142 8.65502C10.8222 8.39541 10.7289 8.14286 10.554 7.95082L6.85901 3.88782C6.68405 3.69517 6.44089 3.57832 6.18116 3.56208C5.92143 3.54583 5.66561 3.63147 5.46801 3.80082L3.29801 5.66182C3.12512 5.83533 3.02193 6.06627 3.00801 6.31082C2.99301 6.56082 2.70701 12.4828 7.29901 17.0768C11.305 21.0818 16.323 21.3748 17.705 21.3748C17.907 21.3748 18.031 21.3688 18.064 21.3668C18.3085 21.3531 18.5393 21.2495 18.712 21.0758L20.572 18.9048C20.7415 18.7073 20.8273 18.4516 20.8112 18.1919C20.7952 17.9321 20.6785 17.6889 20.486 17.5138L16.422 13.8178V13.8178Z" fill="white"/>
</svg>
