<svg width="24" height="25" viewBox="0 0 24 25" fill="none" xmlns="http://www.w3.org/2000/svg">
<path d="M12 1.87482C9.81275 1.8774 7.71583 2.74742 6.16921 4.29404C4.6226 5.84065 3.75257 7.93757 3.74999 10.1248C3.74737 11.9122 4.33123 13.6512 5.41199 15.0748C5.41199 15.0748 5.63699 15.3711 5.67374 15.4138L12 22.8748L18.3292 15.4101C18.3622 15.3703 18.588 15.0748 18.588 15.0748L18.5887 15.0726C19.669 13.6495 20.2526 11.9114 20.25 10.1248C20.2474 7.93757 19.3774 5.84065 17.8308 4.29404C16.2842 2.74742 14.1872 1.8774 12 1.87482V1.87482ZM12 13.1248C11.4066 13.1248 10.8266 12.9489 10.3333 12.6192C9.83994 12.2896 9.45542 11.821 9.22835 11.2729C9.00129 10.7247 8.94188 10.1215 9.05764 9.53955C9.17339 8.9576 9.45912 8.42305 9.87867 8.0035C10.2982 7.58394 10.8328 7.29822 11.4147 7.18246C11.9967 7.06671 12.5999 7.12612 13.148 7.35318C13.6962 7.58024 14.1648 7.96476 14.4944 8.45811C14.824 8.95145 15 9.53147 15 10.1248C14.999 10.9202 14.6826 11.6826 14.1202 12.245C13.5578 12.8074 12.7953 13.1238 12 13.1248V13.1248Z" fill="white"/>
</svg>
