<svg width="30" height="43" viewBox="0 0 30 43" fill="none" xmlns="http://www.w3.org/2000/svg">
<circle cx="15" cy="15.3748" r="15" fill="#1B1B1B"/>
<path d="M20.6985 33.3869C19.7258 32.9818 18.6995 32.6928 17.6451 32.5268C17.6355 32.5254 17.6257 32.5266 17.617 32.5304C17.6082 32.5343 17.601 32.5404 17.5963 32.5481C17.4641 32.7608 17.3179 33.0389 17.2157 33.2567C16.0791 33.1002 14.923 33.1002 13.7863 33.2567C13.6724 33.0141 13.5434 32.7775 13.4001 32.5481C13.3953 32.5405 13.3881 32.5344 13.3794 32.5306C13.3707 32.5268 13.3609 32.5255 13.3514 32.5268C12.2967 32.6919 11.2701 32.9811 10.2979 33.3869C10.2896 33.3897 10.2827 33.3952 10.2783 33.4022C8.3339 36.0384 7.80047 38.61 8.06203 41.1493C8.06297 41.1612 8.07141 41.1731 8.08172 41.1807C9.21395 41.9418 10.4804 42.5228 11.827 42.8991C11.8365 42.9018 11.8467 42.9017 11.8562 42.8988C11.8656 42.8959 11.8738 42.8903 11.8795 42.8829C12.1682 42.5256 12.4251 42.1488 12.6464 41.7524C12.651 41.7442 12.6525 41.7349 12.6509 41.7259C12.6492 41.7168 12.6443 41.7085 12.637 41.7022C12.6321 41.698 12.6264 41.6948 12.6201 41.6928C12.2162 41.552 11.825 41.3827 11.4501 41.1867C11.4397 41.1813 11.4319 41.1725 11.4284 41.162C11.4249 41.1516 11.426 41.1403 11.4314 41.1305C11.4346 41.1242 11.4394 41.1187 11.4454 41.1144C11.5242 41.0608 11.6029 41.0046 11.6779 40.9485C11.6846 40.9437 11.6925 40.9406 11.7009 40.9395C11.7094 40.9385 11.7179 40.9395 11.7257 40.9425C14.181 41.9599 16.8388 41.9599 19.2641 40.9425C19.2722 40.9394 19.2811 40.9382 19.2899 40.9393C19.2986 40.9403 19.3069 40.9435 19.3138 40.9485C19.3888 41.0046 19.4675 41.0608 19.5463 41.1144C19.5527 41.1186 19.5578 41.1242 19.5612 41.1307C19.5646 41.1371 19.5662 41.1443 19.5658 41.1514C19.5655 41.1586 19.5631 41.1656 19.5591 41.1717C19.555 41.1779 19.5493 41.183 19.5425 41.1867C19.1685 41.3845 18.7768 41.5536 18.3716 41.692C18.3651 41.6941 18.3593 41.6975 18.3544 41.7019C18.3496 41.7063 18.3458 41.7116 18.3435 41.7175C18.3413 41.7232 18.3405 41.7292 18.3409 41.7352C18.3414 41.7412 18.3432 41.747 18.3463 41.7524C18.5713 42.1479 18.8291 42.5256 19.1122 42.8829C19.1179 42.8903 19.1261 42.8959 19.1356 42.8988C19.145 42.9017 19.1552 42.9018 19.1647 42.8991C20.5136 42.524 21.7821 41.9428 22.9156 41.1807C22.9213 41.1772 22.926 41.1725 22.9294 41.167C22.9328 41.1616 22.9349 41.1555 22.9353 41.1493C23.2484 38.2136 22.4113 35.6633 20.7172 33.403C20.7155 33.3993 20.713 33.3959 20.7097 33.3931C20.7065 33.3904 20.7027 33.3882 20.6985 33.3869ZM13.0129 39.6027C12.2732 39.6027 11.6648 38.9868 11.6648 38.2314C11.6648 37.4752 12.262 36.8593 13.0129 36.8593C13.7695 36.8593 14.3723 37.4803 14.361 38.2314C14.361 38.9868 13.7638 39.6027 13.0129 39.6027ZM17.9966 39.6027C17.2579 39.6027 16.6485 38.9868 16.6485 38.2314C16.6485 37.4752 17.2457 36.8593 17.9966 36.8593C18.7532 36.8593 19.3569 37.4803 19.3447 38.2314C19.3447 38.9868 18.7532 39.6027 17.9966 39.6027Z" fill="white"/>
</svg>
