<svg width="30" height="44" viewBox="0 0 30 44" fill="none" xmlns="http://www.w3.org/2000/svg">
<circle cx="15" cy="15.3748" r="15" fill="#1B1B1B"/>
<path d="M23 32.9676C22.4484 33.2107 21.8481 33.3857 21.2298 33.4538C21.8717 33.0642 22.3525 32.4486 22.5818 31.7226C21.9794 32.0887 21.3195 32.3455 20.6313 32.4814C20.3437 32.1673 19.9958 31.917 19.6094 31.7462C19.2229 31.5754 18.8062 31.4878 18.3852 31.4887C16.6816 31.4887 15.3116 32.8995 15.3116 34.6307C15.3116 34.8738 15.3405 35.1169 15.3873 35.3508C12.8366 35.2145 10.5616 33.9695 9.04915 32.0634C8.77357 32.5442 8.62916 33.0918 8.63093 33.649C8.63093 34.7393 9.17354 35.7007 10.001 36.2661C9.51335 36.2464 9.03715 36.1095 8.6111 35.8664V35.9051C8.6111 37.4319 9.66747 38.6971 11.0754 38.9881C10.811 39.0582 10.5391 39.0941 10.266 39.0949C10.0659 39.0949 9.87658 39.0746 9.68549 39.047C10.0749 40.292 11.2087 41.1963 12.5589 41.2257C11.5026 42.071 10.1794 42.5683 8.7427 42.5683C8.48492 42.5683 8.24697 42.5591 8 42.5296C9.36282 43.4228 10.9798 43.9385 12.7212 43.9385C18.3744 43.9385 21.4677 39.1538 21.4677 35.0008C21.4677 34.8645 21.4677 34.7283 21.4587 34.592C22.0572 34.1445 22.5818 33.5901 23 32.9676Z" fill="white"/>
</svg>
