<svg width="30" height="45" viewBox="0 0 30 45" fill="none" xmlns="http://www.w3.org/2000/svg">
<circle cx="15" cy="15.3748" r="15" fill="white"/>
<path fill-rule="evenodd" clip-rule="evenodd" d="M12.408 29.4605C13.2077 29.4223 13.4627 29.4138 15.5 29.4138C17.5373 29.4138 17.7923 29.423 18.5914 29.4605C19.3905 29.498 19.9359 29.6302 20.4132 29.8219C20.913 30.0179 21.3664 30.3242 21.7414 30.7203C22.1232 31.1087 22.4177 31.5784 22.6059 32.0976C22.7914 32.5927 22.9182 33.1586 22.955 33.9863C22.9918 34.8174 23 35.082 23 37.1949C23 39.3085 22.9911 39.5731 22.955 40.4028C22.9189 41.2305 22.7914 41.7964 22.6059 42.2915C22.4177 42.8108 22.1227 43.2813 21.7414 43.6702C21.3664 44.0663 20.913 44.3719 20.4132 44.5671C19.9359 44.7596 19.3905 44.8911 18.5927 44.9293C17.7923 44.9675 17.5373 44.976 15.5 44.976C13.4627 44.976 13.2077 44.9668 12.408 44.9293C11.6102 44.8918 11.0648 44.7596 10.5875 44.5671C10.087 44.3719 9.63351 44.0658 9.25864 43.6702C8.87708 43.2816 8.58181 42.8114 8.39341 42.2922C8.20864 41.7971 8.08182 41.2312 8.045 40.4035C8.00818 39.5724 8 39.3078 8 37.1949C8 35.0813 8.00886 34.8167 8.045 33.9877C8.08114 33.1586 8.20864 32.5927 8.39341 32.0976C8.58208 31.5784 8.87758 31.1082 9.25932 30.7196C9.63366 30.3238 10.0867 30.0175 10.5868 29.8219C11.0641 29.6302 11.6095 29.4987 12.4073 29.4605H12.408ZM18.5307 30.8611C17.7398 30.8236 17.5025 30.8158 15.5 30.8158C13.4975 30.8158 13.2602 30.8236 12.4693 30.8611C11.7377 30.8957 11.3409 31.0224 11.0764 31.1292C10.7266 31.2706 10.4764 31.4383 10.2139 31.7106C9.96503 31.9618 9.77353 32.2675 9.65341 32.6055C9.55045 32.8799 9.42841 33.2916 9.395 34.0506C9.35886 34.8712 9.35136 35.1173 9.35136 37.1949C9.35136 39.2725 9.35886 39.5186 9.395 40.3392C9.42841 41.0982 9.55045 41.5099 9.65341 41.7843C9.77341 42.1218 9.965 42.428 10.2139 42.6792C10.4559 42.9374 10.7511 43.1361 11.0764 43.2606C11.3409 43.3674 11.7377 43.4941 12.4693 43.5287C13.2602 43.5662 13.4968 43.574 15.5 43.574C17.5032 43.574 17.7398 43.5662 18.5307 43.5287C19.2623 43.4941 19.6591 43.3674 19.9236 43.2606C20.2734 43.1192 20.5236 42.9515 20.7861 42.6792C21.035 42.428 21.2266 42.1218 21.3466 41.7843C21.4495 41.5099 21.5716 41.0982 21.605 40.3392C21.6411 39.5186 21.6486 39.2725 21.6486 37.1949C21.6486 35.1173 21.6411 34.8712 21.605 34.0506C21.5716 33.2916 21.4495 32.8799 21.3466 32.6055C21.2102 32.2426 21.0486 31.983 20.7861 31.7106C20.544 31.4525 20.2493 31.2538 19.9236 31.1292C19.6591 31.0224 19.2623 30.8957 18.5307 30.8611V30.8611ZM14.542 39.5936C15.077 39.8247 15.6728 39.8558 16.2275 39.6818C16.7821 39.5078 17.2614 39.1394 17.5834 38.6395C17.9053 38.1396 18.05 37.5393 17.9928 36.941C17.9355 36.3428 17.6798 35.7837 17.2693 35.3593C17.0077 35.088 16.6913 34.8802 16.343 34.751C15.9946 34.6218 15.623 34.5743 15.2549 34.612C14.8867 34.6497 14.5312 34.7716 14.214 34.9689C13.8967 35.1662 13.6255 35.4341 13.42 35.7532C13.2145 36.0723 13.0797 36.4347 13.0254 36.8143C12.971 37.1939 12.9985 37.5813 13.1058 37.9486C13.2131 38.3159 13.3976 38.6539 13.6459 38.9384C13.8943 39.2228 14.2003 39.4466 14.542 39.5936ZM12.7741 34.3668C13.1321 33.9954 13.557 33.7008 14.0247 33.4998C14.4925 33.2988 14.9938 33.1954 15.5 33.1954C16.0062 33.1954 16.5075 33.2988 16.9753 33.4998C17.443 33.7008 17.8679 33.9954 18.2259 34.3668C18.5839 34.7382 18.8678 35.1791 19.0616 35.6644C19.2553 36.1496 19.355 36.6697 19.355 37.1949C19.355 37.7201 19.2553 38.2402 19.0616 38.7254C18.8678 39.2107 18.5839 39.6516 18.2259 40.023C17.503 40.773 16.5224 41.1944 15.5 41.1944C14.4776 41.1944 13.497 40.773 12.7741 40.023C12.0511 39.2729 11.645 38.2556 11.645 37.1949C11.645 36.1342 12.0511 35.1169 12.7741 34.3668V34.3668ZM20.21 33.791C20.2987 33.7042 20.3697 33.5998 20.4188 33.484C20.468 33.3682 20.4942 33.2433 20.496 33.1168C20.4977 32.9903 20.475 32.8647 20.4292 32.7475C20.3833 32.6303 20.3153 32.5238 20.2291 32.4343C20.1428 32.3448 20.0402 32.2742 19.9272 32.2267C19.8142 32.1791 19.6931 32.1556 19.5712 32.1574C19.4492 32.1592 19.3289 32.1864 19.2173 32.2374C19.1057 32.2884 19.005 32.362 18.9214 32.4541C18.7586 32.6331 18.6695 32.8708 18.673 33.1168C18.6764 33.3629 18.7722 33.5978 18.9399 33.7718C19.1076 33.9458 19.334 34.0451 19.5712 34.0487C19.8083 34.0523 20.0375 33.9599 20.21 33.791V33.791Z" fill="black"/>
</svg>
